o ButtonCollider
v -0.015 0.01 0.015
v 0.015 0.01 0.015
v 0.015 0 0.015
v -0.015 0 0.015
v 0.015 0.01 0.015
v 0.04 0.01 0.04
v 0.04 0 0.04
v 0.015 0 0.015
v 0.04 0.01 0.04
v 0 0.01 0.11
v 0 0 0.11
v 0.04 0 0.04
v 0 0.01 0.11
v -0.04 0.01 0.04
v -0.04 0 0.04
v 0 0 0.11
v -0.04 0.01 0.04
v -0.015 0.01 0.015
v -0.015 0 0.015
v -0.04 0 0.04
v -0.015 0.01 0.015
v -0.04 0.01 0.04
v 0 0.01 0.11
v -0.015 0.01 0.015
v 0 0.01 0.11
v 0.04 0.01 0.04
v 0.04 0.01 0.04
v 0.015 0.01 0.015
v -0.015 0.01 0.015
v 0 0 0.11
v -0.04 0 0.04
v -0.015 0 0.015
v 0.04 0 0.04
v 0 0 0.11
v -0.015 0 0.015
v -0.015 0 0.015
v 0.015 0 0.015
v 0.04 0 0.04
vn 0 0 -0.03
vn 0 0 -0.03
vn 0 0 -0.03
vn 0 0 -0.03
vn 0.025 0 -0.025
vn 0.025 0 -0.025
vn 0.025 0 -0.025
vn 0.025 0 -0.025
vn 0.07 0 0.04
vn 0.07 0 0.04
vn 0.07 0 0.04
vn 0.07 0 0.04
vn -0.07 0 0.04
vn -0.07 0 0.04
vn -0.07 0 0.04
vn -0.07 0 0.04
vn -0.025 0 -0.025
vn -0.025 0 -0.025
vn -0.025 0 -0.025
vn -0.025 0 -0.025
vn 0 1 0
vn 0 1 0
vn 0 1 0
vn 0 1 0
vn 0 1 0
vn 0 1 0
vn 0 1 0
vn 0 1 0
vn 0 1 0
vn 0 -1 0
vn 0 -1 0
vn 0 -1 0
vn 0 -1 0
vn 0 -1 0
vn 0 -1 0
vn 0 -1 0
vn 0 -1 0
vn 0 -1 0

g ButtonCollider
f 1//1 2//2 3//3 4//4
f 5//5 6//6 7//7 8//8
f 9//9 10//10 11//11 12//12
f 13//13 14//14 15//15 16//16
f 17//17 18//18 19//19 20//20
f 21//21 22//22 23//23
f 24//24 25//25 26//26
f 27//27 28//28 29//29
f 30//30 31//31 32//32
f 33//33 34//34 35//35
f 36//36 37//37 38//38